<svg width="116" height="42" viewBox="0 0 116 42" fill="none" xmlns="http://www.w3.org/2000/svg">
<path d="M51.4807 15.2189C52.5464 15.2189 53.6774 15.2288 54.807 15.2189C56.6206 15.199 58.4351 15.1706 60.2505 15.1337C61.0807 15.1167 61.7973 15.3381 62.5877 15.6758C63.4732 16.0519 63.9359 16.6195 64.3573 17.3432C64.7476 18.0116 64.5645 18.6701 64.4623 19.4165C64.2892 20.7022 63.2831 21.5224 63.0433 22.5186C63.7131 23.5218 64.5021 24.3435 64.8412 25.3212C65.016 25.7934 65.0824 26.2989 65.0355 26.8002C64.9886 27.3016 64.8296 27.786 64.5702 28.2176C64.3105 28.6333 64.2112 29.1527 63.933 29.55C63.687 29.9276 63.3498 30.2371 62.9524 30.4497C61.9591 30.9195 60.8891 31.0415 59.7766 30.9251C59.1025 30.8542 58.393 31.0486 57.7317 30.9336C56.9841 30.8059 56.2202 30.8059 55.4725 30.9336C55.0468 31.0017 54.5913 30.8471 54.1485 30.813C53.9004 30.7929 53.6508 30.7976 53.4035 30.8272C52.8203 30.901 52.2399 30.9918 51.6595 31.0897C51.055 31.1905 50.8081 30.8315 50.9727 30.3618C51.2962 29.4294 50.9656 28.4247 51.1869 27.596C51.5218 26.3387 51.1089 25.1836 51.2011 23.9958C51.3274 22.388 51.4268 20.7788 51.5261 19.171C51.5332 18.9834 51.5072 18.7961 51.4495 18.6175C51.2551 17.9761 51.1657 17.3759 51.4495 16.6947C51.624 16.2619 51.4807 15.6985 51.4807 15.2189ZM56.7653 23.8752C56.7156 24.8387 56.6234 25.7611 56.639 26.6807C56.6489 27.2114 57.0889 27.4512 57.5912 27.5662C58.0936 27.6811 58.4426 27.4058 58.6214 27.0227C58.8582 26.5424 59.0126 26.0258 59.0784 25.4943C59.1947 24.3208 58.6754 23.8298 57.4975 23.8738C57.3343 23.8766 57.1712 23.8709 56.7653 23.8709V23.8752ZM59.1948 18.9198C59.1629 18.7441 59.107 18.5737 59.0287 18.4132C58.7265 17.9194 57.8935 17.6639 57.2478 17.881C56.6376 18.0882 56.4531 18.5991 56.4957 19.1795C56.5264 19.6508 56.6092 20.1172 56.7426 20.5702C56.7811 20.7064 56.8529 20.8309 56.9516 20.9324C57.0503 21.0339 57.1727 21.1092 57.3078 21.1514C57.4429 21.1937 57.5864 21.2016 57.7253 21.1745C57.8643 21.1473 57.9942 21.0859 58.1035 20.9959C58.7648 20.4992 59.1224 19.8337 59.1905 18.9156L59.1948 18.9198Z" fill="#6E2828"/>
<path d="M8.68857 30.781C7.43979 30.5567 6.12006 30.5156 4.95642 30.0714C3.22516 29.403 1.7919 28.387 0.914917 26.5067C0.175582 24.9216 -0.0429577 23.3848 0.00670973 21.733C0.0337107 20.3851 0.532903 19.0894 1.41726 18.0718C2.06294 17.3197 2.78525 16.6343 3.47491 15.9205C3.50582 15.8846 3.54469 15.8564 3.58844 15.8382C5.3197 15.2918 6.92893 14.3439 8.87447 14.5425C10.6781 14.727 12.2235 15.4962 13.5971 16.5292C14.5213 17.2161 15.2693 18.1124 15.7797 19.1446C16.2877 20.2373 16.5119 21.5343 16.5445 22.7519C16.5758 23.8687 16.1869 24.9983 15.9769 26.1207C15.9755 26.1451 15.9666 26.1684 15.9514 26.1874C14.748 27.1354 14.2286 28.7886 12.7414 29.4201C11.4501 29.9664 10.2566 30.9115 8.68857 30.781ZM10.3361 22.4085C10.2354 20.829 10.0338 20.3948 8.94826 19.603C7.89389 18.8352 6.0264 19.6399 5.93416 20.961C5.86936 22.0613 5.88264 23.1648 5.97389 24.2632C6.04484 25.2267 6.85514 26.0824 7.61008 26.1534C8.0967 26.1931 8.58269 26.0696 8.99128 25.8023C9.39988 25.5351 9.70779 25.1393 9.86639 24.6775C10.0977 23.9425 10.1843 23.1648 10.3361 22.4085Z" fill="#6E2828"/>
<path d="M115.811 17.9595C115.593 18.1213 115.371 18.2618 115.178 18.4321C114.249 19.2551 113.304 20.0612 112.411 20.9225C111.843 21.4675 111.747 22.1912 111.863 22.9589C111.99 23.799 112.178 24.4603 113.187 24.7654C113.942 24.991 114.569 25.6409 115.248 26.1092C115.34 26.1731 115.465 26.2795 115.468 26.3689C115.496 27.253 115.517 28.1385 115.509 29.0226C115.509 29.7236 115.451 30.4246 115.419 31.1313C114.897 31.1313 114.513 31.1852 114.152 31.1157C113.792 31.0462 113.348 30.9383 113.085 30.69C112.56 30.2032 111.973 29.8825 111.364 29.5263C110.583 29.068 109.993 28.2492 109.391 27.5396C108.919 26.972 108.398 26.5463 107.656 26.3845C107.068 27.0572 107.169 27.8746 107.101 28.6636C107.037 29.4043 106.884 30.138 106.791 30.7382C106.115 30.778 105.333 30.8617 104.552 30.8603C103.772 30.8589 103.011 30.768 102.189 30.7184V15.1753H107.075C107.105 15.316 107.102 15.4616 107.067 15.601C106.685 16.4993 106.902 17.3507 107.209 18.2093C107.524 19.1019 108.164 19.3275 108.879 18.7074C109.438 18.2249 109.899 17.6317 110.44 17.118C110.893 16.6823 111.385 16.2878 111.859 15.882C111.965 15.7926 112.122 15.7557 112.212 15.6564C112.864 14.9341 112.952 14.917 113.759 15.4463C114.338 15.8267 114.852 16.2396 115.058 16.969C115.14 17.2755 115.461 17.5196 115.811 17.9595Z" fill="#6E2828"/>
<path d="M83.6904 30.5929C83.3215 30.5205 83.0632 30.4056 82.822 30.434C82.0628 30.5248 81.3135 30.8597 80.56 30.3502C80.4436 30.2722 80.1342 30.4524 79.9271 30.5404C79.4006 30.7646 79.0132 30.7504 78.7393 30.126C78.2895 29.0972 77.5402 28.4586 76.3269 28.5069C75.7408 28.5296 75.1491 28.4302 74.563 28.4501C73.002 28.5026 72.2471 29.5158 71.8327 30.8043H67.3271L68.3205 28.5693C68.4416 28.2997 68.5627 28.031 68.6838 27.7633C68.9676 27.1516 69.2628 26.55 69.5139 25.9284C69.789 25.2657 70.0301 24.5893 70.2362 23.902C70.5697 22.744 71.2821 21.6982 71.1189 20.3884C71.0125 19.5242 70.801 19.0956 69.9368 19.0261C69.2514 18.9721 69.2273 18.667 69.2812 18.098C69.3536 17.3658 69.2812 16.6193 69.2812 15.88C69.2812 15.6544 69.2812 15.4287 69.2812 15.301C70.32 15.301 71.2849 15.318 72.2485 15.301C74.1727 15.2599 76.097 15.1804 78.0212 15.1719C78.2455 15.1719 78.6088 15.4756 78.6726 15.704C79.0529 17.0521 79.3353 18.4286 79.7142 19.7767C79.8689 20.3288 80.1853 20.834 80.4237 21.3633C80.5174 21.5676 80.682 21.789 80.6721 21.9834C80.6323 22.7043 80.9247 23.2606 81.2553 23.8906C81.796 24.918 82.1266 26.059 82.5325 27.1545C82.8844 28.101 83.2221 29.0532 83.5585 30.0054C83.6137 30.1985 83.6578 30.3947 83.6904 30.5929ZM74.8198 21.6357C74.5701 22.1523 74.3728 22.6021 74.1415 23.0335C73.8832 23.5146 73.9301 24.3944 74.2834 24.674C74.6552 24.9705 75.0554 25.2728 75.5521 24.9365C76.0488 24.6002 76.6632 24.3405 76.439 23.5359C76.3695 23.2889 76.378 23.0222 76.3326 22.7682C76.1282 21.6655 75.826 21.4655 74.8198 21.6357Z" fill="#6E2828"/>
<path d="M33.856 30.4072C33.5662 30.4786 33.271 30.5261 32.9734 30.5491C31.8883 30.5576 30.8003 30.5458 29.7095 30.5136C29.4881 30.5136 29.1859 30.4541 29.0638 30.305C28.4423 29.5444 27.6845 29.7005 27.019 30.0752C25.431 30.9706 23.9907 30.6215 22.4325 29.9333C21.5116 29.5231 21.1156 28.9399 20.7084 28.0885C20.2827 27.2101 19.8328 26.3629 19.7817 25.3922C19.7079 23.9618 19.6923 22.5271 19.7023 21.0939C19.7122 19.855 19.8442 18.6148 19.8229 17.3773C19.8129 16.638 19.6327 15.9029 19.5391 15.2033C20.2231 15.0529 20.802 14.8613 21.3924 14.8159C21.8479 14.779 22.3148 14.9337 22.7788 14.9862C23.0853 15.0203 23.4245 15.1139 23.6969 15.0217C24.2646 14.8301 24.4348 15.0657 24.3483 15.5411C24.1454 16.6664 24.2518 17.7562 24.3696 18.8929C24.5115 20.2921 24.3043 21.7396 24.1595 23.1586C24.0318 24.4102 24.7399 26.3331 25.5999 26.7772C26.7082 27.3449 27.6306 26.9745 27.9286 25.7598C28.0759 25.1144 28.1436 24.4534 28.1301 23.7915C28.1117 21.3152 28.0506 18.839 28.0038 16.3627C28.0038 16.0562 27.9882 15.7482 27.9754 15.4417C27.9527 14.9025 28.2152 14.85 28.6935 14.9096C29.1717 14.9692 29.6315 14.8159 30.0983 14.8329C30.7702 14.8497 31.4357 14.9678 32.0723 15.1834L32.6967 14.6641L32.9067 14.7081C32.9067 15.192 32.9067 15.6759 32.9067 16.1598C32.9237 17.2865 32.9592 18.4133 32.9634 19.54C32.9634 20.004 32.874 20.4695 32.8769 20.9335C32.8769 21.5863 32.9521 22.2391 32.9606 22.8918C32.9606 23.2878 33.0358 23.7631 32.8485 24.0611C32.5193 24.5905 32.5136 25.0417 32.7846 25.5526C32.8209 25.6143 32.8436 25.683 32.8513 25.7541C32.9038 27.3222 32.8272 28.9186 34.0448 30.227L33.856 30.4072Z" fill="#6E2828"/>
<path d="M97.8762 19.3104C96.741 19.3104 95.5802 19.1685 94.4704 19.3473C93.7953 19.4604 93.1504 19.7101 92.5751 20.0809C91.9997 20.4518 91.5061 20.9361 91.1243 21.5043C90.375 22.5842 90.568 23.7989 91.2009 24.8604C91.8338 25.9219 92.9577 26.3462 94.1341 26.3987C95.1885 26.4455 96.2514 26.2866 97.31 26.2184L97.8975 26.183C97.8975 27.602 97.9145 28.953 97.8762 30.2983C97.8762 30.4643 97.5924 30.7424 97.4164 30.7623C96.9907 30.8091 96.5394 30.7382 96.0995 30.7112C96.03 30.7112 95.9576 30.6616 95.8924 30.6715C94.5641 30.8787 93.2415 30.829 91.9048 30.7098C90.9412 30.6232 89.9294 30.8517 89.1433 30.0528C89.075 29.9864 88.9939 29.9348 88.9049 29.9009C87.6518 29.4099 86.9849 28.286 86.237 27.2969C85.834 26.7662 85.7403 26.0028 85.492 25.35C84.9244 23.8642 84.9896 22.3359 85.3018 20.8317C85.4324 20.203 85.878 19.6354 86.1987 19.0493C86.2867 18.889 86.4527 18.7726 86.5591 18.6236C87.9952 16.5518 89.8996 15.3001 92.4823 15.2178C93.8205 15.1767 95.1587 15.1213 96.4983 15.0759C96.64 15.0859 96.7823 15.0859 96.924 15.0759C97.9018 14.8957 97.8932 14.8929 97.8833 15.9118C97.8677 17.0158 97.8762 18.1156 97.8762 19.3104Z" fill="#6E2828"/>
<path d="M47.2703 18.5795C47.1582 18.5681 47.0446 18.561 46.9311 18.5426C45.3205 18.2744 44.3896 19.0449 44.3981 20.6996C44.4052 22.015 44.5088 23.3291 44.5159 24.6446C44.5159 26.2056 44.4662 27.7793 44.4548 29.346C44.4672 29.7135 44.4989 30.0801 44.5499 30.4443C43.636 30.5209 42.7151 30.6061 41.7941 30.6714C41.3116 30.7068 40.8206 30.6714 40.3466 30.7381C39.9209 30.8034 39.7606 30.6387 39.7435 30.2712C39.7279 29.942 39.7549 29.6113 39.7677 29.2779C39.8471 27.1918 40.1934 25.1101 39.8131 23.0198C39.7925 22.8088 39.7925 22.5964 39.8131 22.3854C39.8131 21.6007 39.8712 20.8145 39.823 20.0355C39.7691 19.1471 39.2554 18.6689 38.367 18.6164C37.903 18.5866 37.4361 18.6164 36.9395 18.6164V14.9453C37.3481 14.9765 37.6632 15.0148 37.9782 15.0205C38.5359 15.0304 39.095 15.0034 39.6513 15.0205C40.2076 15.0375 40.7227 15.1226 41.2591 15.1226C41.7444 15.1226 42.2283 15.0233 42.7151 15.0063C43.5112 14.9793 44.2945 15.0375 44.9941 15.7045C45.4539 14.5082 46.5097 15.2915 47.4576 14.8828C47.3994 16.1671 47.3398 17.3293 47.2703 18.5795Z" fill="#6E2828"/>
<path d="M63.5732 38.8857C63.5732 37.1246 64.7241 35.9184 66.3873 35.9298C67.9383 35.9411 69.0239 37.1615 69.0296 38.8999C69.0367 40.4608 67.829 41.8402 66.4752 41.8388C64.7355 41.8374 63.5704 40.651 63.5732 38.8857ZM66.295 41.203C67.4005 41.2229 68.4052 40.1997 68.4378 39.0191C68.4776 37.6099 67.5594 36.5598 66.2439 36.5144C65.1456 36.4761 64.2076 37.5276 64.1664 38.8417C64.1238 40.2366 64.9739 41.1789 66.295 41.203Z" fill="#6E2828"/>
<path d="M42.5273 41.7401C43.1759 39.928 43.8173 38.1144 44.4828 36.3079C44.5205 36.2287 44.5764 36.1595 44.646 36.1059C44.7155 36.0524 44.7967 36.0161 44.883 36C44.9702 36.0105 45.0535 36.0418 45.1261 36.0912C45.1987 36.1405 45.2584 36.2066 45.3002 36.2838C46.0268 38.0647 46.732 39.8542 47.443 41.6422L47.2174 41.8309C47.0457 41.6706 46.8073 41.5471 46.715 41.3442C46.506 40.871 46.3227 40.3869 46.1658 39.8939C46.0239 39.4923 45.7912 39.2568 45.3272 39.3263C44.7865 39.4043 44.1068 39.0425 43.7988 39.8301C43.6016 40.3324 43.4242 40.8447 43.2028 41.3385C43.082 41.5458 42.9393 41.7394 42.7771 41.9161L42.5273 41.7401ZM45.0519 37.2232L44.8291 37.209C44.6673 37.6504 44.5069 38.0917 44.321 38.5997H45.5755C45.374 38.0704 45.2122 37.6475 45.0519 37.2232Z" fill="#6E2828"/>
<path d="M85.4834 35.9966C86.5775 35.9966 87.6375 35.8887 88.672 36.1739C88.672 36.269 88.682 36.3641 88.6862 36.4578C88.076 36.5088 87.4658 36.5755 86.8542 36.6082C86.017 36.6536 85.6636 37.1673 86.0028 37.9435C86.0638 38.0854 86.3178 38.2089 86.4924 38.2273C87.0813 38.2756 87.6744 38.2543 88.2633 38.2954C88.4053 38.3068 88.5472 38.4544 88.6777 38.5381C88.5358 38.6218 88.4095 38.7637 88.2676 38.7765C87.5183 38.8389 86.7662 38.8687 85.9772 38.9184C85.9772 39.5527 85.9233 40.1473 86.0084 40.7221C86.034 40.9023 86.4157 41.1279 86.657 41.1606C87.192 41.2358 87.744 41.1818 88.2846 41.2216C88.4265 41.2315 88.5457 41.4004 88.6749 41.4969C88.5628 41.582 88.4507 41.7395 88.3371 41.7424C87.3991 41.7622 86.4611 41.7537 85.4877 41.7537L85.4834 35.9966Z" fill="#6E2828"/>
<path d="M57.5149 36.0781C57.5432 36.518 57.5915 36.958 57.5972 37.3979C57.6085 38.3486 57.661 38.4111 58.5905 38.3912C58.9453 38.3912 59.3001 38.36 59.6534 38.3529C60.6198 38.333 60.6567 38.2975 60.6851 37.2999C60.6978 36.9069 60.7134 36.5138 60.7276 36.1207L61.0909 36.1278C61.1746 37.9421 61.1647 39.7595 61.0611 41.5728C61.0611 41.6608 60.8568 41.7388 60.5999 41.936C60.5999 41.0349 60.5815 40.314 60.5999 39.5932C60.6155 39.0993 60.3913 38.9092 59.9287 38.9134C59.3611 38.9134 58.7934 38.9234 58.2258 38.9134C57.7391 38.8992 57.556 39.1135 57.5603 39.596C57.5603 40.3325 57.5191 41.0704 57.4907 41.919C56.9373 41.4933 56.8905 37.0247 57.2708 36.1108L57.5149 36.0781Z" fill="#6E2828"/>
<path d="M72.1289 35.9985C72.1956 36.193 72.3134 36.3859 72.3191 36.5818C72.3503 37.6432 72.3432 38.7104 72.3716 39.7662C72.3957 40.6872 72.9733 41.2122 73.9127 41.2051C74.6591 41.2051 75.3218 40.541 75.3318 39.7378C75.3545 38.6025 75.3431 37.4673 75.3531 36.3391C75.3531 36.2313 75.3999 36.1248 75.6099 35.9531C75.6922 36.1419 75.8426 36.3306 75.8455 36.5208C75.8597 37.7 75.8653 38.8807 75.8242 40.0599C75.7901 41.0533 74.9727 41.7898 73.951 41.8196C72.8328 41.8522 71.8551 41.1285 71.8082 40.1082C71.7472 38.7714 71.7926 37.429 71.7926 36.0894L72.1289 35.9985Z" fill="#6E2828"/>
<path d="M39.815 41.7414H36.5781V36.207C37.9972 35.8863 39.7001 36.0878 39.8207 36.6625C39.1225 36.6625 38.4442 36.6881 37.7673 36.6625C37.018 36.6257 36.9896 37.101 37.0138 37.636C37.0365 38.1469 37.1699 38.4875 37.8212 38.3867C38.3397 38.3288 38.8626 38.3231 39.3822 38.3697C39.5326 38.3697 39.6759 38.5244 39.8221 38.6081C39.6802 38.7188 39.5383 38.9146 39.3779 38.9246C38.9097 38.9529 38.4371 38.8976 37.9674 38.899C37.1259 38.899 37.0081 39.0296 37.0251 39.8356C37.0578 41.3526 37.0563 41.3313 38.5861 41.232C39.0118 41.2036 39.5426 41.0688 39.8718 41.4874L39.815 41.7414Z" fill="#6E2828"/>
<path d="M50.9083 35.9609V38.3918C52.2323 37.9405 52.6112 36.2916 54.1381 36.337L51.5838 38.6075L54.0104 41.782L53.8416 41.9948C53.6074 41.8529 53.3137 41.7493 53.1476 41.5464C52.4608 40.7148 51.8123 39.8506 51.151 38.9921L50.8828 39.0134L50.7125 41.8515L50.3946 41.8302C50.1946 40.011 50.4017 38.186 50.4656 36.3654C50.4755 36.2774 50.6628 36.1866 50.9083 35.9609Z" fill="#6E2828"/>
<path d="M27.5353 36.7869C27.2245 36.6933 26.9065 36.6254 26.5845 36.584C26.2626 36.5523 25.9376 36.5935 25.6337 36.7046C25.5229 36.7628 25.4269 36.8456 25.3531 36.9467C25.2793 37.0479 25.2297 37.1645 25.208 37.2878C25.1995 37.4766 25.4237 37.7504 25.6181 37.8555C26.0907 38.1166 26.6115 38.294 27.1025 38.5224C27.6957 38.7977 28.1171 39.2078 28.1214 39.9216C28.1256 40.6354 27.7865 41.1775 27.1479 41.5223C26.2567 42.0034 25.3684 41.9126 24.5027 41.4755C24.3424 41.3946 24.2643 41.1491 24.043 40.8256C24.7156 40.9973 25.1782 41.1662 25.6494 41.2201C26.0112 41.2598 26.4894 41.2797 26.7364 41.0782C27.0883 40.7944 27.4714 40.3119 27.4729 39.9117C27.4729 39.5796 26.9946 39.1724 26.6384 38.9297C26.2596 38.6714 25.7572 38.6005 25.34 38.3862C24.8476 38.1336 24.5638 37.7504 24.6305 37.126C24.6972 36.5017 25.0491 36.1654 25.6096 36.093C26.1424 36.0279 26.6813 36.0317 27.2132 36.1043C27.3934 36.1285 27.5353 36.4392 27.6942 36.6194L27.5353 36.7869Z" fill="#6E2828"/>
<path d="M81.8503 36.6827C81.3863 36.6344 80.9094 36.5067 80.4596 36.5677C80.1758 36.606 79.7628 36.9083 79.7302 37.1354C79.6976 37.3624 80.0027 37.737 80.2538 37.9158C80.593 38.1571 81.0201 38.272 81.4104 38.4423C82.0546 38.7261 82.4406 39.1845 82.4122 39.9167C82.3839 40.649 82.0816 41.2336 81.3962 41.5742C80.6157 41.9602 79.8267 41.8793 79.0675 41.5472C78.8745 41.4635 78.7752 41.1627 78.6318 40.9612L78.7652 40.8193C79.0646 40.9087 79.3627 41.069 79.6635 41.0747C80.1886 41.0832 80.7746 41.13 81.2245 40.9243C82.1 40.5298 82.0915 39.5222 81.2557 39.0511C80.8348 38.8382 80.4011 38.6515 79.9572 38.492C79.3598 38.2493 78.9412 37.8917 79.0363 37.1666C79.1271 36.4797 79.5684 36.1023 80.1957 36.0044C80.6383 35.9505 81.0869 35.975 81.5211 36.0767C81.7098 36.1151 81.8545 36.3747 82.0192 36.5351L81.8503 36.6827Z" fill="#6E2828"/>
<path d="M31.8022 36.596C31.3467 36.596 30.9508 36.6187 30.5577 36.5833C30.4885 36.562 30.4251 36.5255 30.372 36.4764C30.3189 36.4272 30.2776 36.3667 30.2512 36.2994C30.2284 36.2384 30.3931 36.0156 30.4697 36.0156C31.595 36.0468 32.7203 36.0993 33.8442 36.166C33.901 36.166 33.9478 36.3463 34.0599 36.5577C33.7009 36.5776 33.4341 36.6159 33.1716 36.6031C32.604 36.5747 32.3542 36.833 32.3528 37.3992C32.3528 38.719 32.3244 40.0401 32.306 41.3598C32.306 41.4719 32.2818 41.584 32.2691 41.6961L32.0477 41.7671C31.9782 41.5684 31.8504 41.3712 31.8476 41.1711C31.8292 39.8939 31.8391 38.6253 31.8363 37.351C31.8334 37.1253 31.815 36.8969 31.8022 36.596Z" fill="#6E2828"/>
<path d="M76.7703 0.00159509C77.1237 0.0567315 77.4757 0.120792 77.8306 0.16573C78.933 0.306599 80.0351 0.448741 81.139 0.574311C82.5111 0.730159 83.7305 1.26304 84.8369 2.0904C85.024 2.23127 85.2208 2.36321 85.4085 2.50472C85.8099 2.80933 86.3014 2.96391 86.8009 2.94262C87.3004 2.92133 87.7776 2.72546 88.1528 2.38776C88.8388 1.7768 89.6447 1.48454 90.5509 1.47403C90.9279 1.46956 91.2775 1.59163 91.6162 1.74269C92.466 2.12132 93.2378 2.6201 93.9086 3.28173C94.2404 3.60873 94.608 3.89843 94.9623 4.20184C95.2841 4.47752 95.663 4.58843 96.0765 4.63815C96.4763 4.68596 96.8692 4.78985 97.2659 4.86475C97.5562 4.91957 97.8469 4.97789 98.1391 5.01486C98.5376 5.06719 98.9156 5.22593 99.2349 5.47508C99.2956 5.51617 99.3528 5.56244 99.4058 5.61339C99.8505 6.08476 100.418 6.33782 100.996 6.58545C101.728 6.89906 102.445 7.24868 103.171 7.57791C103.59 7.76913 104.024 7.83829 104.475 7.70029C104.715 7.62667 104.937 7.66268 105.166 7.77614C105.852 8.11589 106.538 8.46487 107.292 8.6239C107.612 8.69147 107.934 8.74565 108.257 8.80047C108.596 8.85815 108.923 8.9442 109.228 9.11917C109.345 9.18578 109.495 9.19885 109.633 9.21766C110.06 9.27598 110.489 9.32155 110.915 9.38115C110.998 9.39294 111.102 9.42354 111.152 9.48441C111.384 9.77125 111.707 9.80312 112.027 9.81778C112.189 9.82575 112.354 9.77348 112.516 9.74193C113.223 9.60584 113.904 9.65906 114.53 10.0501C114.779 10.206 114.999 10.4029 115.095 10.7054C115.144 10.8628 115.08 11.0053 114.924 11.056C114.841 11.0867 114.754 11.1042 114.665 11.1079C114.246 11.1079 113.828 11.1458 113.409 11.0486C113.219 11.0046 113.009 11.0598 112.808 11.0563C112.582 11.0528 112.357 11.0266 112.131 11.0244C111.971 11.0228 111.811 11.0461 111.651 11.0563C111.289 11.078 110.926 11.1156 110.564 11.1156C108.531 11.1156 106.499 11.1019 104.467 11.1015C103.984 11.1015 103.501 11.1471 103.019 11.1471C102.26 11.1471 101.502 11.1264 100.744 11.1152C100.1 11.1047 99.456 11.0862 98.8108 11.0834C97.2048 11.0783 95.5988 11.0866 93.9928 11.077C93.0005 11.0709 92.0082 11.0235 91.0159 11.0273C88.9945 11.0349 86.9734 11.0662 84.9523 11.084C84.6981 11.0862 84.444 11.0547 84.1898 11.0566C83.515 11.0614 82.8405 11.0824 82.1656 11.0856C80.8143 11.0913 79.4629 11.0925 78.1116 11.0891C77.3791 11.0869 76.6459 11.0805 75.914 11.0502C75.474 11.0321 75.0352 10.9696 74.5971 10.918C74.0451 10.8526 73.4991 10.8982 72.9508 10.9686C72.5239 11.0235 72.0936 11.0792 71.6645 11.0811C69.5127 11.0923 67.361 11.0866 65.2092 11.0831C65.1231 11.0794 65.0384 11.0591 64.9597 11.0231C64.6045 10.8727 64.2506 10.9017 63.8929 11.0101C63.8094 11.0367 63.7225 11.0509 63.635 11.0521C62.3723 11.0477 61.109 11.0263 59.8467 11.0365C58.5737 11.0467 57.3014 11.1003 56.0284 11.1105C55.2444 11.1165 54.4598 11.0786 53.6755 11.0537C53.5601 11.0502 53.4457 11.0155 53.3325 10.9954L53.3528 10.7682L53.3178 10.7395C53.2555 10.7933 53.1825 10.8386 53.1335 10.903C53.025 11.0458 52.8934 11.0942 52.716 11.0875C52.3633 11.0738 52.0093 11.0913 51.6557 11.0815C50.6905 11.0547 49.7253 11.0212 48.7602 10.989C48.1795 10.9699 47.5939 10.8867 47.0198 10.938C45.1973 11.1012 43.3733 10.9836 41.5509 11.0279C41.4283 11.0311 41.3117 11.0375 41.2078 10.924C41.1692 10.881 41.0329 10.8896 40.9634 10.924C40.7426 11.0305 40.5155 11.0356 40.2795 11.0308C39.4846 11.0142 38.689 10.9941 37.8948 10.9989C36.996 11.0046 36.097 11.0282 35.1988 11.0627C34.9905 11.0706 34.7791 11.135 34.5798 11.2054C34.2856 11.3109 33.9763 11.3656 33.6646 11.3673C32.3342 11.3763 31.0036 11.382 29.6729 11.4056C28.9737 11.4177 28.2827 11.3737 27.6013 11.2109C27.1076 11.0923 26.6062 11.0611 26.1013 11.0569C25.7895 11.0547 25.4776 11.0368 25.1658 11.0298C25.1152 11.0298 25.065 11.0534 25.0142 11.0569C24.7629 11.0738 24.4997 11.1426 24.263 11.0888C23.968 11.0222 23.6795 11.0365 23.3879 11.0301C22.6083 11.0136 21.8287 11.0101 21.0491 10.9897C20.479 10.9747 19.9192 11.0257 19.3679 11.1783C18.6419 11.3795 17.915 11.374 17.179 11.2147C16.8313 11.1395 16.4696 11.1191 16.1131 11.1031C15.2088 11.0665 14.3044 11.0591 13.4029 11.0136C13.1612 10.9973 12.9188 10.9973 12.6772 11.0136C12.5104 11.0273 12.3392 10.9737 12.1701 10.9753C11.9741 10.9799 11.7785 10.9969 11.5845 11.0263C10.8092 11.1347 10.0296 11.1108 9.25062 11.1156C8.43981 11.1207 7.62901 11.1509 6.81821 11.1615C6.42902 11.1666 6.03859 11.1516 5.64971 11.1458C5.094 11.1376 4.53797 11.1344 3.98226 11.1194C3.67665 11.1111 3.37167 11.0713 3.06574 11.0674C2.77604 11.0636 2.48571 11.1012 2.19569 11.0968C1.86544 11.0917 1.53551 11.062 1.20588 11.0381C1.08863 11.0295 1.06181 10.9553 1.04341 10.8361C0.989458 10.4855 1.24611 10.4042 1.46534 10.3009C2.3039 9.90511 3.14121 9.50577 3.98912 9.13225C5.40024 8.51109 6.83411 7.94952 8.3132 7.51799C9.24875 7.24454 10.1843 6.95005 11.1348 6.73492C11.8564 6.57174 12.6005 6.51693 13.3371 6.41622C13.8566 6.3461 14.3755 6.2677 14.8963 6.21798C15.5736 6.15424 16.2528 6.1058 16.9321 6.06659C18.3429 5.98469 19.7549 5.92222 21.1654 5.83489C22.2119 5.77115 23.2548 5.66183 24.3032 5.60319C25.3364 5.54175 26.3731 5.60874 27.3905 5.8027C27.6309 5.84892 27.7959 5.95919 27.8757 6.22531C28.0073 6.66194 28.2609 7.02208 28.6494 7.26908C28.8212 7.37839 28.9881 7.49663 29.1612 7.60404C29.3411 7.71559 29.5198 7.75287 29.7375 7.67447C29.9495 7.59798 30.1928 7.6136 30.4073 7.54221C30.7666 7.42333 31.1146 7.26876 31.4676 7.12789C31.9204 6.94463 32.3719 6.75724 32.8244 6.5743C33.0075 6.50068 33.1803 6.5488 33.3187 6.67373C33.445 6.78815 33.5682 6.91754 33.654 7.06479C33.8598 7.42174 34.1298 7.65886 34.5393 7.75033C35.0301 7.85996 35.5132 8.00721 35.9972 8.14744C36.2072 8.20547 36.4129 8.27907 36.6125 8.36766C36.7799 8.44447 36.914 8.42152 37.0659 8.33005C37.2504 8.21254 37.4459 8.11431 37.6497 8.03685C37.7969 7.98521 37.9656 7.98012 38.1237 7.98426C38.3145 7.98936 38.3108 7.98426 38.3551 7.78666C38.4161 7.50308 38.5004 7.22525 38.607 6.95611C38.763 6.57526 39.096 6.37829 39.4581 6.26165C40.1401 6.04206 40.8302 5.84382 41.5188 5.65196C42.0243 5.51141 42.5419 5.40815 43.0085 5.15318C43.1728 5.06535 43.3207 4.94837 43.445 4.8077C43.6222 4.60118 43.7569 4.35801 43.9244 4.1416C44.0803 3.93859 44.2499 3.74417 44.4233 3.55709C44.5169 3.45638 44.6385 3.44427 44.7816 3.47869C45.4486 3.64304 46.0913 3.89737 46.6926 4.23498C47.5297 4.69765 48.4409 5.00395 49.3832 5.13948C49.5619 5.17067 49.7375 5.21835 49.9078 5.28194C50.0868 5.34409 50.2623 5.34568 50.4195 5.24784C50.7707 5.03207 51.1227 4.81503 51.4561 4.5725C52.005 4.17252 52.3458 3.61414 52.5366 2.96047C52.6146 2.69308 52.7646 2.52703 53.0397 2.48847C53.7026 2.39572 54.3635 2.288 55.028 2.21183C56.2813 2.06809 57.5393 2.08435 58.7961 2.14809C59.5008 2.18378 60.2047 2.2523 60.9076 2.32051C61.4963 2.37755 62.0892 2.4225 62.6692 2.53309C63.3709 2.66663 64.0844 2.80239 64.699 3.20715C64.9575 3.37766 65.1886 3.59725 65.4107 3.81748C65.5925 3.99787 65.7945 3.99054 66.0032 3.94209C66.4606 3.83628 66.8452 3.57972 67.1935 3.27281C67.9666 2.59651 68.8569 2.17868 69.8545 2.00148C70.1445 1.94985 70.4451 1.9626 70.7376 1.92212C71.7433 1.78208 72.7142 1.44972 73.5995 0.942416C74.3941 0.489533 75.2304 0.182621 76.1298 0.0500392C76.2471 0.032829 76.3643 0.0181663 76.4816 0L76.7703 0.00159509Z" fill="#6E2828"/>
</svg>
